<?xml version="1.0" standalone="no"?>
<!DOCTYPE svg PUBLIC "-//W3C//DTD SVG 20010904//EN"
 "http://www.w3.org/TR/2001/REC-SVG-20010904/DTD/svg10.dtd">
<svg version="1.0" xmlns="http://www.w3.org/2000/svg"
 width="801.000000pt" height="801.000000pt" viewBox="0 0 801.000000 801.000000"
 preserveAspectRatio="xMidYMid meet">
<metadata>
Created by potrace 1.14, written by Peter Selinger 2001-2017
</metadata>
<g transform="translate(0.000000,801.000000) scale(0.100000,-0.100000)"
fill="#000000" stroke="none">
<path d="M0 4005 l0 -4005 4005 0 4005 0 0 4005 0 4005 -4005 0 -4005 0 0
-4005z m5993 2933 c-4 -7 -407 -669 -895 -1472 -699 -1149 -885 -1462 -878
-1476 5 -9 406 -669 891 -1466 963 -1583 896 -1473 882 -1459 -6 6 -453 620
-993 1365 -541 745 -986 1358 -990 1363 -4 4 -447 -599 -985 -1340 -538 -742
-985 -1355 -993 -1363 -20 -20 -84 -126 893 1480 477 784 868 1430 868 1435 0
6 -397 663 -883 1460 -485 798 -884 1455 -887 1460 -14 31 118 -150 1002
-1368 534 -735 975 -1335 980 -1333 6 1 455 615 999 1364 852 1173 1033 1420
989 1350z"/>
</g>
</svg>
